<?xml version="1.0" encoding="UTF-8"?>
<svg viewBox="0 0 1400 900" width="1400" height="900" style="display: block; background: rgb(255, 255, 255); font-family: &quot;Inter&quot;, -apple-system, BlinkMacSystemFont, system-ui, sans-serif;" xmlns="http://www.w3.org/2000/svg" xmlns:xlink="http://www.w3.org/1999/xlink"><defs><pattern id="grid-drawio-light" x="0" y="0" width="14" height="14" patternUnits="userSpaceOnUse"><circle cx="1" cy="1" r="0.7" fill="#d9d5cd"/></pattern><marker id="ah-drawio-light" viewBox="0 0 10 10" refX="9" refY="5" markerWidth="6" markerHeight="6" orient="auto-start-reverse"><path d="M0,0 L10,5 L0,10 z" fill="#2a2722"/></marker></defs><rect x="0" y="0" width="1400" height="900" fill="url(#grid-drawio-light)"/><g transform="translate(40,44)"><text x="0" y="0" font-family="'JetBrains Mono', ui-monospace, Menlo, Consolas, monospace" font-size="10.5" font-weight="500" fill="#6b655c" letter-spacing="1.5">FIGURE 1</text><text x="0" y="22" font-family="'Inter', -apple-system, BlinkMacSystemFont, system-ui, sans-serif" font-size="18" font-weight="600" fill="#1a1714" letter-spacing="-0.3">System architecture</text></g><g><rect x="440" y="90" width="760" height="110" rx="6" fill="#d4e2f2" stroke="#88a5c6" stroke-width="1.25" stroke-dasharray="4 3"/><text x="820" y="108" text-anchor="middle" font-family="'Inter', -apple-system, BlinkMacSystemFont, system-ui, sans-serif" font-size="12.5" font-weight="500" fill="#365070" letter-spacing="0.1">EPICS Control System</text></g><g transform="translate(480,125)"><rect x="0" y="0" width="680" height="60" rx="10" fill="#ffffff" stroke="#2a2722" stroke-width="1.25"/><text x="340" y="26" text-anchor="middle" dominant-baseline="middle" font-family="'Inter', -apple-system, BlinkMacSystemFont, system-ui, sans-serif" font-size="14" font-weight="500" fill="#1a1714">EPICS IOCs</text><text x="340" y="44" text-anchor="middle" dominant-baseline="middle" font-family="'JetBrains Mono', ui-monospace, Menlo, Consolas, monospace" font-size="11" font-weight="400" fill="#6b655c">40–50K process variables</text></g><g><rect x="220" y="250" width="260" height="180" rx="6" fill="#fbe8d4" stroke="#e6b883" stroke-width="1.25" stroke-dasharray="4 3"/><text x="350" y="268" text-anchor="middle" font-family="'Inter', -apple-system, BlinkMacSystemFont, system-ui, sans-serif" font-size="12.5" font-weight="500" fill="#7a5631" letter-spacing="0.1">Frontend server</text></g><g transform="translate(250,290)"><rect x="0" y="0" width="200" height="110" rx="10" fill="#ffffff" stroke="#2a2722" stroke-width="1.25"/><rect x="6" y="6" width="188" height="98" rx="7" fill="none" stroke="#2a2722" stroke-width="1" opacity="0.55"/><text x="100" y="56" text-anchor="middle" dominant-baseline="middle" font-family="'Inter', -apple-system, BlinkMacSystemFont, system-ui, sans-serif" font-size="14" font-weight="500" fill="#1a1714">Node web server</text></g><g><rect x="220" y="460" width="260" height="180" rx="6" fill="#fbe8d4" stroke="#e6b883" stroke-width="1.25" stroke-dasharray="4 3"/><text x="350" y="478" text-anchor="middle" font-family="'Inter', -apple-system, BlinkMacSystemFont, system-ui, sans-serif" font-size="12.5" font-weight="500" fill="#7a5631" letter-spacing="0.1">OPI / User computer</text></g><g transform="translate(250,500)"><rect x="0" y="0" width="200" height="110" rx="10" fill="#ffffff" stroke="#2a2722" stroke-width="1.25"/><rect x="6" y="6" width="188" height="98" rx="7" fill="none" stroke="#2a2722" stroke-width="1" opacity="0.55"/><text x="100" y="56" text-anchor="middle" dominant-baseline="middle" font-family="'Inter', -apple-system, BlinkMacSystemFont, system-ui, sans-serif" font-size="14" font-weight="500" fill="#1a1714">Tauri app</text></g><g><rect x="560" y="250" width="760" height="520" rx="6" fill="#dfd9f4" stroke="#a79ed6" stroke-width="1.25" stroke-dasharray="4 3"/><text x="940" y="268" text-anchor="middle" font-family="'Inter', -apple-system, BlinkMacSystemFont, system-ui, sans-serif" font-size="12.5" font-weight="500" fill="#4d4388" letter-spacing="0.1">Backend Server</text></g><g><rect x="630" y="310" width="220" height="110" rx="10" fill="#ffffff" stroke="#2a2722" stroke-width="1.25" opacity="0.5"/><rect x="625" y="305" width="220" height="110" rx="10" fill="#ffffff" stroke="#2a2722" stroke-width="1.25" opacity="0.65"/><g transform="translate(620,300)"><rect x="0" y="0" width="220" height="110" rx="10" fill="#ffffff" stroke="#2a2722" stroke-width="1.25"/><rect x="6" y="6" width="208" height="98" rx="7" fill="none" stroke="#2a2722" stroke-width="1" opacity="0.55"/><text x="110" y="51" text-anchor="middle" dominant-baseline="middle" font-family="'Inter', -apple-system, BlinkMacSystemFont, system-ui, sans-serif" font-size="14" font-weight="500" fill="#1a1714">FastAPI</text><text x="110" y="69" text-anchor="middle" dominant-baseline="middle" font-family="'JetBrains Mono', ui-monospace, Menlo, Consolas, monospace" font-size="11" font-weight="400" fill="#6b655c">squirrel-api  ·  ×3</text></g></g><g transform="translate(1050,300)"><rect x="0" y="0" width="220" height="110" rx="10" fill="#ffffff" stroke="#2a2722" stroke-width="1.25"/><rect x="6" y="6" width="208" height="98" rx="7" fill="none" stroke="#2a2722" stroke-width="1" opacity="0.55"/><text x="110" y="51" text-anchor="middle" dominant-baseline="middle" font-family="'Inter', -apple-system, BlinkMacSystemFont, system-ui, sans-serif" font-size="14" font-weight="500" fill="#1a1714">EPICS Monitor</text><text x="110" y="69" text-anchor="middle" dominant-baseline="middle" font-family="'JetBrains Mono', ui-monospace, Menlo, Consolas, monospace" font-size="11" font-weight="400" fill="#6b655c">squirrel-monitor  ·  singleton</text></g><g transform="translate(620,620)"><path d="M0,10 V90 A75,10 0 0 0 150,90 V10" fill="#ffffff" stroke="#2a2722" stroke-width="1.25"/><ellipse cx="75" cy="10" rx="75" ry="10" fill="#ffffff" stroke="#2a2722" stroke-width="1.25"/><path d="M0,90 A75,10 0 0 0 150,90" fill="none" stroke="#2a2722" stroke-width="1.25"/><text x="75" y="52" text-anchor="middle" dominant-baseline="middle" font-family="'Inter', -apple-system, BlinkMacSystemFont, system-ui, sans-serif" font-size="13" font-weight="500" fill="#1a1714">Postgres</text><text x="75" y="68" text-anchor="middle" dominant-baseline="middle" font-family="'JetBrains Mono', ui-monospace, Menlo, Consolas, monospace" font-size="10.5" font-weight="400" fill="#6b655c">database</text></g><g><rect x="825" y="625" width="200" height="100" rx="10" fill="#ffffff" stroke="#2a2722" stroke-width="1.25" opacity="0.5"/><g transform="translate(820,620)"><rect x="0" y="0" width="200" height="100" rx="10" fill="#ffffff" stroke="#2a2722" stroke-width="1.25"/><rect x="6" y="6" width="188" height="88" rx="7" fill="none" stroke="#2a2722" stroke-width="1" opacity="0.55"/><text x="100" y="46" text-anchor="middle" dominant-baseline="middle" font-family="'Inter', -apple-system, BlinkMacSystemFont, system-ui, sans-serif" font-size="14" font-weight="500" fill="#1a1714">Arq Workers</text><text x="100" y="64" text-anchor="middle" dominant-baseline="middle" font-family="'JetBrains Mono', ui-monospace, Menlo, Consolas, monospace" font-size="11" font-weight="400" fill="#6b655c">squirrel-worker</text></g></g><g transform="translate(1050,620)"><rect x="0" y="0" width="220" height="100" rx="10" fill="#ffffff" stroke="#2a2722" stroke-width="1.25"/><rect x="6" y="6" width="208" height="88" rx="7" fill="none" stroke="#2a2722" stroke-width="1" opacity="0.55"/><text x="110" y="46" text-anchor="middle" dominant-baseline="middle" font-family="'Inter', -apple-system, BlinkMacSystemFont, system-ui, sans-serif" font-size="14" font-weight="500" fill="#1a1714">Redis Cache</text><text x="110" y="64" text-anchor="middle" dominant-baseline="middle" font-family="'JetBrains Mono', ui-monospace, Menlo, Consolas, monospace" font-size="11" font-weight="400" fill="#6b655c">pub/sub · queue · leader lock</text></g><g transform="translate(90,330)" stroke="#2a2722" stroke-width="1.5" fill="none" stroke-linecap="round" stroke-linejoin="round"><circle cx="0" cy="0" r="11"/><path d="M0,11 L0,42"/><path d="M-16,24 L16,24"/><path d="M0,42 L-14,64 M0,42 L14,64"/></g><path d="M120,345 L250,345" fill="none" stroke="#2a2722" stroke-width="1.4" stroke-linecap="round" stroke-linejoin="round" marker-end="url(#ah-drawio-light)" marker-start="url(#ah-drawio-light)"/><path d="M120,375 L120,555 Q120,555 120,555 L250,555" fill="none" stroke="#2a2722" stroke-width="1.4" stroke-linecap="round" stroke-linejoin="round" marker-end="url(#ah-drawio-light)" marker-start="url(#ah-drawio-light)"/><path d="M450,345 L620,345" fill="none" stroke="#2a2722" stroke-width="1.4" stroke-linecap="round" stroke-linejoin="round" marker-end="url(#ah-drawio-light)" marker-start="url(#ah-drawio-light)"/><path d="M450,555 L540,555 Q540,555 540,555 L540,380 Q540,380 540,380 L620,380" fill="none" stroke="#2a2722" stroke-width="1.4" stroke-linecap="round" stroke-linejoin="round" marker-end="url(#ah-drawio-light)" marker-start="url(#ah-drawio-light)"/><path d="M840,355 L1050,355" fill="none" stroke="#2a2722" stroke-width="1.4" stroke-linecap="round" stroke-linejoin="round" marker-end="url(#ah-drawio-light)" marker-start="url(#ah-drawio-light)"/><path d="M730,300 L730,200" fill="none" stroke="#2a2722" stroke-width="1.4" stroke-linecap="round" stroke-linejoin="round" marker-end="url(#ah-drawio-light)" marker-start="url(#ah-drawio-light)"/><path d="M1160,300 L1160,200" fill="none" stroke="#2a2722" stroke-width="1.4" stroke-linecap="round" stroke-linejoin="round" marker-end="url(#ah-drawio-light)" marker-start="url(#ah-drawio-light)"/><path d="M695,410 L695,630" fill="none" stroke="#2a2722" stroke-width="1.4" stroke-linecap="round" stroke-linejoin="round" marker-end="url(#ah-drawio-light)"/><path d="M780,410 L780,560 Q780,560 780,560 L1160,560 Q1160,560 1160,560 L1160,620" fill="none" stroke="#2a2722" stroke-width="1.4" stroke-linecap="round" stroke-linejoin="round" marker-end="url(#ah-drawio-light)" marker-start="url(#ah-drawio-light)"/><path d="M1160,410 L1160,620" fill="none" stroke="#2a2722" stroke-width="1.4" stroke-linecap="round" stroke-linejoin="round" marker-end="url(#ah-drawio-light)" marker-start="url(#ah-drawio-light)"/><path d="M1020,670 L1050,670" fill="none" stroke="#2a2722" stroke-width="1.4" stroke-linecap="round" stroke-linejoin="round" marker-end="url(#ah-drawio-light)" marker-start="url(#ah-drawio-light)"/><path d="M820,670 L770,670" fill="none" stroke="#2a2722" stroke-width="1.4" stroke-linecap="round" stroke-linejoin="round" marker-end="url(#ah-drawio-light)"/></svg>