<?xml version="1.0" encoding="UTF-8"?>
<svg viewBox="0 0 900 1200" width="900" height="1200" style="display: block; background: rgb(255, 255, 255); font-family: &quot;Inter&quot;, -apple-system, BlinkMacSystemFont, system-ui, sans-serif;" xmlns="http://www.w3.org/2000/svg" xmlns:xlink="http://www.w3.org/1999/xlink"><defs><pattern id="grid-flow-polling-light" x="0" y="0" width="14" height="14" patternUnits="userSpaceOnUse"><circle cx="1" cy="1" r="0.7" fill="#d9d5cd"/></pattern><marker id="ah-flow-polling-light" viewBox="0 0 10 10" refX="9" refY="5" markerWidth="6" markerHeight="6" orient="auto-start-reverse"><path d="M0,0 L10,5 L0,10 z" fill="#2a2722"/></marker></defs><rect x="0" y="0" width="900" height="1200" fill="url(#grid-flow-polling-light)"/><g transform="translate(40,44)"><text x="0" y="0" font-family="'JetBrains Mono', ui-monospace, Menlo, Consolas, monospace" font-size="10.5" font-weight="500" fill="#6b655c" letter-spacing="1.5">FIGURE 5</text><text x="0" y="22" font-family="'Inter', -apple-system, BlinkMacSystemFont, system-ui, sans-serif" font-size="18" font-weight="600" fill="#1a1714" letter-spacing="-0.3">Async job status polling</text></g><g><rect x="310" y="92" width="280" height="76" rx="10" fill="#fbe8d4" stroke="#e6b883" stroke-width="1.25"/><rect x="316" y="98" width="268" height="64" rx="7" fill="none" stroke="#e6b883" stroke-width="1" opacity="0.6"/><text x="450" y="131" text-anchor="middle" dominant-baseline="middle" font-family="'Inter', -apple-system, BlinkMacSystemFont, system-ui, sans-serif" font-size="15" font-weight="600" fill="#1a1714">API Request</text></g><path d="M450,168 L450,212" fill="none" stroke="#2a2722" stroke-width="1.4" stroke-linecap="round" stroke-linejoin="round" marker-end="url(#ah-flow-polling-light)"/><g><rect x="310" y="212" width="280" height="76" rx="10" fill="#dfd9f4" stroke="#a79ed6" stroke-width="1.25"/><rect x="316" y="218" width="268" height="64" rx="7" fill="none" stroke="#a79ed6" stroke-width="1" opacity="0.6"/><text x="450" y="244" text-anchor="middle" dominant-baseline="middle" font-family="'Inter', -apple-system, BlinkMacSystemFont, system-ui, sans-serif" font-size="15" font-weight="600" fill="#1a1714">Create Job</text><text x="450" y="264" text-anchor="middle" dominant-baseline="middle" font-family="'JetBrains Mono', ui-monospace, Menlo, Consolas, monospace" font-size="11.5" fill="#6b655c">status = PENDING</text></g><path d="M590,250 L710,250 Q710,250 710,250 L710,490 Q710,490 710,490 L590,490" fill="none" stroke="#2a2722" stroke-width="1.4" stroke-linecap="round" stroke-linejoin="round" marker-end="url(#ah-flow-polling-light)"/><path d="M450,288 L450,332" fill="none" stroke="#2a2722" stroke-width="1.4" stroke-linecap="round" stroke-linejoin="round" marker-end="url(#ah-flow-polling-light)"/><g><rect x="310" y="332" width="280" height="76" rx="10" fill="#f5e6c6" stroke="#d4b36e" stroke-width="1.25"/><rect x="316" y="338" width="268" height="64" rx="7" fill="none" stroke="#d4b36e" stroke-width="1" opacity="0.6"/><text x="450" y="364" text-anchor="middle" dominant-baseline="middle" font-family="'Inter', -apple-system, BlinkMacSystemFont, system-ui, sans-serif" font-size="15" font-weight="600" fill="#1a1714">Enqueue Task</text><text x="450" y="384" text-anchor="middle" dominant-baseline="middle" font-family="'JetBrains Mono', ui-monospace, Menlo, Consolas, monospace" font-size="11.5" fill="#6b655c">Arq · Redis</text></g><path d="M450,408 L450,452" fill="none" stroke="#2a2722" stroke-width="1.4" stroke-linecap="round" stroke-linejoin="round" marker-end="url(#ah-flow-polling-light)"/><g><rect x="310" y="452" width="280" height="76" rx="10" fill="#dcecd9" stroke="#8ab48a" stroke-width="1.25"/><rect x="316" y="458" width="268" height="64" rx="7" fill="none" stroke="#8ab48a" stroke-width="1" opacity="0.6"/><text x="450" y="491" text-anchor="middle" dominant-baseline="middle" font-family="'Inter', -apple-system, BlinkMacSystemFont, system-ui, sans-serif" font-size="15" font-weight="600" fill="#1a1714">Return Job ID</text></g><path d="M450,528 L450,572" fill="none" stroke="#2a2722" stroke-width="1.4" stroke-linecap="round" stroke-linejoin="round" marker-end="url(#ah-flow-polling-light)"/><g><rect x="481.4" y="541" width="93.19999999999999" height="18" rx="4" fill="#ffffff" stroke="#2a2722" stroke-width="0.75" opacity="0.95"/><text x="528" y="551" text-anchor="middle" dominant-baseline="middle" font-family="'JetBrains Mono', ui-monospace, Menlo, Consolas, monospace" font-size="10.5" font-weight="500" fill="#6b655c">client polls</text></g><g><rect x="310" y="572" width="280" height="76" rx="10" fill="#d4e2f2" stroke="#88a5c6" stroke-width="1.25"/><rect x="316" y="578" width="268" height="64" rx="7" fill="none" stroke="#88a5c6" stroke-width="1" opacity="0.6"/><text x="450" y="611" text-anchor="middle" dominant-baseline="middle" font-family="'Inter', -apple-system, BlinkMacSystemFont, system-ui, sans-serif" font-size="15" font-weight="600" fill="#1a1714">GET /jobs/{id}</text></g><path d="M450,648 L450,690" fill="none" stroke="#2a2722" stroke-width="1.4" stroke-linecap="round" stroke-linejoin="round" marker-end="url(#ah-flow-polling-light)"/><g><rect x="200" y="690" width="500" height="220" rx="10" fill="#ffffff" stroke="#2a2722" stroke-width="1.25"/><rect x="206" y="696" width="488" height="208" rx="7" fill="none" stroke="#2a2722" stroke-width="1" opacity="0.4"/><text x="450" y="714" text-anchor="middle" font-family="'Inter', -apple-system, BlinkMacSystemFont, system-ui, sans-serif" font-size="14" font-weight="600" fill="#1a1714">Job Status Response</text><g><rect x="228" y="746" width="444" height="148" rx="6" fill="#fbf8f1" stroke="#2a2722" stroke-width="0.75" opacity="0.9"/><circle cx="242" cy="758" r="3.5" fill="#e06c6c" opacity="0.5"/><circle cx="254" cy="758" r="3.5" fill="#e0b96c" opacity="0.5"/><circle cx="266" cy="758" r="3.5" fill="#7fb86a" opacity="0.5"/><g font-family="'JetBrains Mono', ui-monospace, Menlo, Consolas, monospace" font-size="13"><text x="246" y="786" fill="#1a1714">{</text><g><text x="264" y="804" fill="#2f5a7f">"status"</text><text x="327.4" y="804" fill="#1a1714">:</text><text x="337.4" y="804" fill="#4a6b3a">"IN_PROGRESS",</text></g><g><text x="264" y="822" fill="#2f5a7f">"progress"</text><text x="343.2" y="822" fill="#1a1714">:</text><text x="353.2" y="822" fill="#876218">45,</text></g><g><text x="264" y="840" fill="#2f5a7f">"data"</text><text x="311.6" y="840" fill="#1a1714">:</text><text x="321.6" y="840" fill="#1a1714">{...}</text></g><text x="246" y="858" fill="#1a1714">}</text></g></g></g></svg>