<?xml version="1.0" encoding="UTF-8"?>
<svg viewBox="0 0 900 1100" width="900" height="1100" style="display: block; background: rgb(26, 26, 31); font-family: &quot;Inter&quot;, -apple-system, BlinkMacSystemFont, system-ui, sans-serif;" xmlns="http://www.w3.org/2000/svg" xmlns:xlink="http://www.w3.org/1999/xlink"><defs><pattern id="grid-flow-circuit-breaker-dark" x="0" y="0" width="14" height="14" patternUnits="userSpaceOnUse"><circle cx="1" cy="1" r="0.7" fill="#2f2f37"/></pattern><marker id="ah-flow-circuit-breaker-dark" viewBox="0 0 10 10" refX="9" refY="5" markerWidth="6" markerHeight="6" orient="auto-start-reverse"><path d="M0,0 L10,5 L0,10 z" fill="#c8c2b5"/></marker></defs><rect x="0" y="0" width="900" height="1100" fill="url(#grid-flow-circuit-breaker-dark)"/><g transform="translate(40,44)"><text x="0" y="0" font-family="'JetBrains Mono', ui-monospace, Menlo, Consolas, monospace" font-size="10.5" font-weight="500" fill="#9a9488" letter-spacing="1.5">FIGURE 6</text><text x="0" y="22" font-family="'Inter', -apple-system, BlinkMacSystemFont, system-ui, sans-serif" font-size="18" font-weight="600" fill="#e8e4db" letter-spacing="-0.3">Circuit breaker request path</text></g><g><rect x="290" y="79" width="320" height="42" rx="21" fill="#22222a" stroke="#c8c2b5" stroke-width="1.25"/><text x="450" y="94" text-anchor="middle" dominant-baseline="middle" font-family="'Inter', -apple-system, BlinkMacSystemFont, system-ui, sans-serif" font-size="13" font-weight="500" fill="#e8e4db">EPICS Request</text><text x="450" y="111" text-anchor="middle" dominant-baseline="middle" font-family="'JetBrains Mono', ui-monospace, Menlo, Consolas, monospace" font-size="11" fill="#9a9488">caget  ·  caput</text></g><path d="M450,121 L450,180" fill="none" stroke="#c8c2b5" stroke-width="1.4" stroke-linecap="round" stroke-linejoin="round" marker-end="url(#ah-flow-circuit-breaker-dark)"/><g><rect x="240" y="180" width="420" height="80" rx="10" fill="#22222a" stroke="#c8c2b5" stroke-width="1.25"/><rect x="246" y="186" width="408" height="68" rx="7" fill="none" stroke="#c8c2b5" stroke-width="1" opacity="0.55"/><text x="450" y="216" text-anchor="middle" dominant-baseline="middle" font-family="'Inter', -apple-system, BlinkMacSystemFont, system-ui, sans-serif" font-size="14" font-weight="500" fill="#e8e4db">Circuit Breaker Check</text><text x="450" y="234" text-anchor="middle" dominant-baseline="middle" font-family="'JetBrains Mono', ui-monospace, Menlo, Consolas, monospace" font-size="11" fill="#9a9488">keyed by IOC prefix</text></g><path d="M450,260 L450,300 Q450,300 450,300 L270,300 Q270,300 270,300 L270,338" fill="none" stroke="#c8c2b5" stroke-width="1.4" stroke-linecap="round" stroke-linejoin="round" marker-end="url(#ah-flow-circuit-breaker-dark)"/><path d="M450,260 L450,300 Q450,300 450,300 L630,300 Q630,300 630,300 L630,338" fill="none" stroke="#c8c2b5" stroke-width="1.4" stroke-linecap="round" stroke-linejoin="round" marker-end="url(#ah-flow-circuit-breaker-dark)"/><g><rect x="170" y="342" width="200" height="36" rx="18" fill="rgba(210, 110, 110, 0.16)" stroke="rgba(210, 110, 110, 0.60)" stroke-width="1.25"/><text x="270" y="361" text-anchor="middle" dominant-baseline="middle" font-family="'JetBrains Mono', ui-monospace, Menlo, Consolas, monospace" font-size="12" font-weight="600" fill="#e8e4db" letter-spacing="1.2">OPEN</text></g><g><rect x="500" y="342" width="260" height="36" rx="18" fill="rgba(120, 190, 145, 0.14)" stroke="rgba(120, 190, 145, 0.55)" stroke-width="1.25"/><text x="630" y="361" text-anchor="middle" dominant-baseline="middle" font-family="'JetBrains Mono', ui-monospace, Menlo, Consolas, monospace" font-size="12" font-weight="600" fill="#e8e4db" letter-spacing="1.2">CLOSED  ·  HALF-OPEN</text></g><path d="M270,378 L270,426" fill="none" stroke="#c8c2b5" stroke-width="1.4" stroke-linecap="round" stroke-linejoin="round" marker-end="url(#ah-flow-circuit-breaker-dark)"/><path d="M630,378 L630,426" fill="none" stroke="#c8c2b5" stroke-width="1.4" stroke-linecap="round" stroke-linejoin="round" marker-end="url(#ah-flow-circuit-breaker-dark)"/><g><rect x="150" y="426" width="240" height="68" rx="10" fill="#22222a" stroke="#c8c2b5" stroke-width="1.25"/><rect x="156" y="432" width="228" height="56" rx="7" fill="none" stroke="#c8c2b5" stroke-width="1" opacity="0.55"/><text x="270" y="456" text-anchor="middle" dominant-baseline="middle" font-family="'Inter', -apple-system, BlinkMacSystemFont, system-ui, sans-serif" font-size="14" font-weight="500" fill="#e8e4db">Fail fast</text><text x="270" y="474" text-anchor="middle" dominant-baseline="middle" font-family="'JetBrains Mono', ui-monospace, Menlo, Consolas, monospace" font-size="11" fill="#9a9488">reject immediately</text></g><g><rect x="480" y="426" width="300" height="68" rx="10" fill="#22222a" stroke="#c8c2b5" stroke-width="1.25"/><rect x="486" y="432" width="288" height="56" rx="7" fill="none" stroke="#c8c2b5" stroke-width="1" opacity="0.55"/><text x="630" y="456" text-anchor="middle" dominant-baseline="middle" font-family="'Inter', -apple-system, BlinkMacSystemFont, system-ui, sans-serif" font-size="14" font-weight="500" fill="#e8e4db">Execute request</text><text x="630" y="474" text-anchor="middle" dominant-baseline="middle" font-family="'JetBrains Mono', ui-monospace, Menlo, Consolas, monospace" font-size="11" fill="#9a9488">forward to EPICS IOC</text></g><path d="M630,494 L630,518 Q630,518 630,518 L540,518 Q540,518 540,518 L540,560" fill="none" stroke="#c8c2b5" stroke-width="1.4" stroke-linecap="round" stroke-linejoin="round" marker-end="url(#ah-flow-circuit-breaker-dark)"/><path d="M630,494 L630,518 Q630,518 630,518 L720,518 Q720,518 720,518 L720,560" fill="none" stroke="#c8c2b5" stroke-width="1.4" stroke-linecap="round" stroke-linejoin="round" marker-end="url(#ah-flow-circuit-breaker-dark)"/><g><path d="M540,564 L610,600 L540,636 L470,600 Z" fill="rgba(120, 190, 145, 0.16)" stroke="rgba(120, 190, 145, 0.55)" stroke-width="1.25"/><text x="540" y="601" text-anchor="middle" dominant-baseline="middle" font-family="'Inter', -apple-system, BlinkMacSystemFont, system-ui, sans-serif" font-size="14" font-weight="600" fill="#e8e4db">Success</text></g><g><path d="M720,564 L790,600 L720,636 L650,600 Z" fill="rgba(210, 110, 110, 0.16)" stroke="rgba(210, 110, 110, 0.60)" stroke-width="1.25"/><text x="720" y="601" text-anchor="middle" dominant-baseline="middle" font-family="'Inter', -apple-system, BlinkMacSystemFont, system-ui, sans-serif" font-size="14" font-weight="600" fill="#e8e4db">Failure</text></g><path d="M540,636 L540,684" fill="none" stroke="#c8c2b5" stroke-width="1.4" stroke-linecap="round" stroke-linejoin="round" marker-end="url(#ah-flow-circuit-breaker-dark)"/><path d="M720,636 L720,684" fill="none" stroke="#c8c2b5" stroke-width="1.4" stroke-linecap="round" stroke-linejoin="round" marker-end="url(#ah-flow-circuit-breaker-dark)"/><g><rect x="440" y="684" width="200" height="72" rx="6" fill="#22222a" stroke="#c8c2b5" stroke-width="1" stroke-dasharray="3 3"/><text x="540" y="712" text-anchor="middle" dominant-baseline="middle" font-family="'Inter', -apple-system, BlinkMacSystemFont, system-ui, sans-serif" font-size="13" font-weight="600" fill="#e8e4db">Reset count</text><text x="540" y="734" text-anchor="middle" dominant-baseline="middle" font-family="'JetBrains Mono', ui-monospace, Menlo, Consolas, monospace" font-size="10.5" fill="#9a9488" letter-spacing="0.3">HALF-OPEN → CLOSED</text></g><g><rect x="620" y="684" width="200" height="72" rx="6" fill="#22222a" stroke="#c8c2b5" stroke-width="1" stroke-dasharray="3 3"/><text x="720" y="712" text-anchor="middle" dominant-baseline="middle" font-family="'Inter', -apple-system, BlinkMacSystemFont, system-ui, sans-serif" font-size="13" font-weight="600" fill="#e8e4db">Increment count</text><text x="720" y="734" text-anchor="middle" dominant-baseline="middle" font-family="'JetBrains Mono', ui-monospace, Menlo, Consolas, monospace" font-size="10.5" fill="#9a9488" letter-spacing="0.3">threshold → OPEN</text></g><path d="M270,494 L270,860 Q270,860 270,860 L450,860 Q450,860 450,860 L450,898" fill="none" stroke="#c8c2b5" stroke-width="1.4" stroke-linecap="round" stroke-linejoin="round" marker-end="url(#ah-flow-circuit-breaker-dark)"/><path d="M540,756 L540,860 Q540,860 540,860 L450,860" fill="none" stroke="#c8c2b5" stroke-width="1.4" stroke-linecap="round" stroke-linejoin="round"/><path d="M720,756 L720,860 Q720,860 720,860 L450,860" fill="none" stroke="#c8c2b5" stroke-width="1.4" stroke-linecap="round" stroke-linejoin="round"/><g><rect x="320" y="898" width="260" height="44" rx="22" fill="rgba(140, 130, 210, 0.16)" stroke="rgba(140, 130, 210, 0.55)" stroke-width="1.25"/><text x="450" y="921" text-anchor="middle" dominant-baseline="middle" font-family="'Inter', -apple-system, BlinkMacSystemFont, system-ui, sans-serif" font-size="14" font-weight="600" fill="#e8e4db">Response</text></g></svg>