<?xml version="1.0" encoding="UTF-8"?>
<svg viewBox="0 0 900 1100" width="900" height="1100" style="display: block; background: rgb(255, 255, 255); font-family: &quot;Inter&quot;, -apple-system, BlinkMacSystemFont, system-ui, sans-serif;" xmlns="http://www.w3.org/2000/svg" xmlns:xlink="http://www.w3.org/1999/xlink"><defs><pattern id="grid-flow-snapshot-light" x="0" y="0" width="14" height="14" patternUnits="userSpaceOnUse"><circle cx="1" cy="1" r="0.7" fill="#d9d5cd"/></pattern><marker id="ah-flow-snapshot-light" viewBox="0 0 10 10" refX="9" refY="5" markerWidth="6" markerHeight="6" orient="auto-start-reverse"><path d="M0,0 L10,5 L0,10 z" fill="#2a2722"/></marker></defs><rect x="0" y="0" width="900" height="1100" fill="url(#grid-flow-snapshot-light)"/><g transform="translate(40,44)"><text x="0" y="0" font-family="'JetBrains Mono', ui-monospace, Menlo, Consolas, monospace" font-size="10.5" font-weight="500" fill="#6b655c" letter-spacing="1.5">FIGURE 2</text><text x="0" y="22" font-family="'Inter', -apple-system, BlinkMacSystemFont, system-ui, sans-serif" font-size="18" font-weight="600" fill="#1a1714" letter-spacing="-0.3">Snapshot job flow</text></g><g><rect x="290" y="99" width="320" height="42" rx="21" fill="#ffffff" stroke="#2a2722" stroke-width="1.25"/><text x="450" y="114" text-anchor="middle" dominant-baseline="middle" font-family="'Inter', -apple-system, BlinkMacSystemFont, system-ui, sans-serif" font-size="13" font-weight="500" fill="#1a1714">API Request</text><text x="450" y="131" text-anchor="middle" dominant-baseline="middle" font-family="'JetBrains Mono', ui-monospace, Menlo, Consolas, monospace" font-size="11" fill="#6b655c">POST  /v1/snapshots</text></g><path d="M450,141 L450,200" fill="none" stroke="#2a2722" stroke-width="1.4" stroke-linecap="round" stroke-linejoin="round" marker-end="url(#ah-flow-snapshot-light)"/><g><rect x="270" y="168" width="360" height="64" rx="10" fill="#ffffff" stroke="#2a2722" stroke-width="1.25"/><rect x="276" y="174" width="348" height="52" rx="7" fill="none" stroke="#2a2722" stroke-width="1" opacity="0.55"/><text x="450" y="201" text-anchor="middle" dominant-baseline="middle" font-family="'Inter', -apple-system, BlinkMacSystemFont, system-ui, sans-serif" font-size="14" font-weight="500" fill="#1a1714">JobService creates Job record</text></g><path d="M450,232 L450,276" fill="none" stroke="#2a2722" stroke-width="1.4" stroke-linecap="round" stroke-linejoin="round" marker-end="url(#ah-flow-snapshot-light)"/><g><rect x="488.8" y="245" width="106.39999999999999" height="18" rx="4" fill="#ffffff" stroke="#2a2722" stroke-width="0.75" opacity="0.95"/><text x="542" y="255" text-anchor="middle" dominant-baseline="middle" font-family="'JetBrains Mono', ui-monospace, Menlo, Consolas, monospace" font-size="10.5" font-weight="500" fill="#6b655c">enqueue to Arq</text></g><g><rect x="270" y="276" width="360" height="64" rx="10" fill="#ffffff" stroke="#2a2722" stroke-width="1.25"/><rect x="276" y="282" width="348" height="52" rx="7" fill="none" stroke="#2a2722" stroke-width="1" opacity="0.55"/><text x="450" y="309" text-anchor="middle" dominant-baseline="middle" font-family="'Inter', -apple-system, BlinkMacSystemFont, system-ui, sans-serif" font-size="14" font-weight="500" fill="#1a1714">Return Job ID immediately</text></g><path d="M450,340 L450,384" fill="none" stroke="#2a2722" stroke-width="1.4" stroke-linecap="round" stroke-linejoin="round" marker-end="url(#ah-flow-snapshot-light)"/><g><rect x="482.3" y="353" width="139.39999999999998" height="18" rx="4" fill="#ffffff" stroke="#2a2722" stroke-width="0.75" opacity="0.95"/><text x="552" y="363" text-anchor="middle" dominant-baseline="middle" font-family="'JetBrains Mono', ui-monospace, Menlo, Consolas, monospace" font-size="10.5" font-weight="500" fill="#6b655c">Arq worker picks up</text></g><g><rect x="270" y="384" width="360" height="64" rx="10" fill="#ffffff" stroke="#2a2722" stroke-width="1.25"/><rect x="276" y="390" width="348" height="52" rx="7" fill="none" stroke="#2a2722" stroke-width="1" opacity="0.55"/><text x="450" y="417" text-anchor="middle" dominant-baseline="middle" font-family="'Inter', -apple-system, BlinkMacSystemFont, system-ui, sans-serif" font-size="14" font-weight="500" fill="#1a1714">Read PV addresses from DB</text></g><path d="M450,448 L450,484" fill="none" stroke="#2a2722" stroke-width="1.4" stroke-linecap="round" stroke-linejoin="round" marker-end="url(#ah-flow-snapshot-light)"/><g><path d="M450,484 L530,524 L450,564 L370,524 Z" fill="#dfd9f4" stroke="#a79ed6" stroke-width="1.25"/><text x="450" y="525" text-anchor="middle" dominant-baseline="middle" font-family="'JetBrains Mono', ui-monospace, Menlo, Consolas, monospace" font-size="13" font-weight="500" fill="#1a1714">use_cache?</text></g><path d="M370,524 L230,524 Q230,524 230,524 L230,594" fill="none" stroke="#2a2722" stroke-width="1.4" stroke-linecap="round" stroke-linejoin="round" marker-end="url(#ah-flow-snapshot-light)"/><g><rect x="213.1" y="497" width="33.8" height="18" rx="4" fill="#ffffff" stroke="#2a2722" stroke-width="0.75" opacity="0.95"/><text x="230" y="507" text-anchor="middle" dominant-baseline="middle" font-family="'JetBrains Mono', ui-monospace, Menlo, Consolas, monospace" font-size="10.5" font-weight="500" fill="#6b655c">yes</text></g><path d="M530,524 L670,524 Q670,524 670,524 L670,594" fill="none" stroke="#2a2722" stroke-width="1.4" stroke-linecap="round" stroke-linejoin="round" marker-end="url(#ah-flow-snapshot-light)"/><g><rect x="656.4" y="497" width="27.2" height="18" rx="4" fill="#ffffff" stroke="#2a2722" stroke-width="0.75" opacity="0.95"/><text x="670" y="507" text-anchor="middle" dominant-baseline="middle" font-family="'JetBrains Mono', ui-monospace, Menlo, Consolas, monospace" font-size="10.5" font-weight="500" fill="#6b655c">no</text></g><g><rect x="120" y="586" width="220" height="76" rx="10" fill="#fbe8d4" stroke="#e6b883" stroke-width="1.25"/><rect x="126" y="592" width="208" height="64" rx="7" fill="none" stroke="#e6b883" stroke-width="1" opacity="0.6"/><text x="230" y="618" text-anchor="middle" dominant-baseline="middle" font-family="'Inter', -apple-system, BlinkMacSystemFont, system-ui, sans-serif" font-size="14" font-weight="600" fill="#1a1714">Redis</text><text x="230" y="638" text-anchor="middle" dominant-baseline="middle" font-family="'JetBrains Mono', ui-monospace, Menlo, Consolas, monospace" font-size="11.5" fill="#6b655c">&lt; 5 s</text></g><g><rect x="560" y="586" width="220" height="76" rx="10" fill="#d4e2f2" stroke="#88a5c6" stroke-width="1.25"/><rect x="566" y="592" width="208" height="64" rx="7" fill="none" stroke="#88a5c6" stroke-width="1" opacity="0.6"/><text x="670" y="618" text-anchor="middle" dominant-baseline="middle" font-family="'Inter', -apple-system, BlinkMacSystemFont, system-ui, sans-serif" font-size="14" font-weight="600" fill="#1a1714">EPICS direct</text><text x="670" y="638" text-anchor="middle" dominant-baseline="middle" font-family="'JetBrains Mono', ui-monospace, Menlo, Consolas, monospace" font-size="11.5" fill="#6b655c">30 – 60 s</text></g><path d="M230,662 L230,720 Q230,720 230,720 L450,720 Q450,720 450,720 L450,740" fill="none" stroke="#2a2722" stroke-width="1.4" stroke-linecap="round" stroke-linejoin="round" marker-end="url(#ah-flow-snapshot-light)"/><path d="M670,662 L670,720 Q670,720 670,720 L450,720" fill="none" stroke="#2a2722" stroke-width="1.4" stroke-linecap="round" stroke-linejoin="round"/><g><rect x="270" y="739" width="360" height="82" rx="10" fill="#ffffff" stroke="#2a2722" stroke-width="1.25"/><rect x="276" y="745" width="348" height="70" rx="7" fill="none" stroke="#2a2722" stroke-width="1" opacity="0.55"/><text x="450" y="776" text-anchor="middle" dominant-baseline="middle" font-family="'Inter', -apple-system, BlinkMacSystemFont, system-ui, sans-serif" font-size="14" font-weight="500" fill="#1a1714">BulkInsertService (COPY)</text><text x="450" y="794" text-anchor="middle" dominant-baseline="middle" font-family="'JetBrains Mono', ui-monospace, Menlo, Consolas, monospace" font-size="11" fill="#6b655c">insert SnapshotValues to DB</text></g><path d="M450,821 L450,856" fill="none" stroke="#2a2722" stroke-width="1.4" stroke-linecap="round" stroke-linejoin="round" marker-end="url(#ah-flow-snapshot-light)"/><g><rect x="300" y="866" width="300" height="44" rx="22" fill="#dcecd9" stroke="#8ab48a" stroke-width="1.25"/><text x="450" y="889" text-anchor="middle" dominant-baseline="middle" font-family="'Inter', -apple-system, BlinkMacSystemFont, system-ui, sans-serif" font-size="14" font-weight="600" fill="#1a1714">Mark Job as COMPLETED</text></g></svg>