<?xml version="1.0" encoding="UTF-8"?>
<svg viewBox="0 0 900 1200" width="900" height="1200" style="display: block; background: rgb(26, 26, 31); font-family: &quot;Inter&quot;, -apple-system, BlinkMacSystemFont, system-ui, sans-serif;" xmlns="http://www.w3.org/2000/svg" xmlns:xlink="http://www.w3.org/1999/xlink"><defs><pattern id="grid-flow-polling-dark" x="0" y="0" width="14" height="14" patternUnits="userSpaceOnUse"><circle cx="1" cy="1" r="0.7" fill="#2f2f37"/></pattern><marker id="ah-flow-polling-dark" viewBox="0 0 10 10" refX="9" refY="5" markerWidth="6" markerHeight="6" orient="auto-start-reverse"><path d="M0,0 L10,5 L0,10 z" fill="#c8c2b5"/></marker></defs><rect x="0" y="0" width="900" height="1200" fill="url(#grid-flow-polling-dark)"/><g transform="translate(40,44)"><text x="0" y="0" font-family="'JetBrains Mono', ui-monospace, Menlo, Consolas, monospace" font-size="10.5" font-weight="500" fill="#9a9488" letter-spacing="1.5">FIGURE 5</text><text x="0" y="22" font-family="'Inter', -apple-system, BlinkMacSystemFont, system-ui, sans-serif" font-size="18" font-weight="600" fill="#e8e4db" letter-spacing="-0.3">Async job status polling</text></g><g><rect x="310" y="92" width="280" height="76" rx="10" fill="rgba(215, 145, 90, 0.14)" stroke="rgba(215, 145, 90, 0.55)" stroke-width="1.25"/><rect x="316" y="98" width="268" height="64" rx="7" fill="none" stroke="rgba(215, 145, 90, 0.55)" stroke-width="1" opacity="0.6"/><text x="450" y="131" text-anchor="middle" dominant-baseline="middle" font-family="'Inter', -apple-system, BlinkMacSystemFont, system-ui, sans-serif" font-size="15" font-weight="600" fill="#e8e4db">API Request</text></g><path d="M450,168 L450,212" fill="none" stroke="#c8c2b5" stroke-width="1.4" stroke-linecap="round" stroke-linejoin="round" marker-end="url(#ah-flow-polling-dark)"/><g><rect x="310" y="212" width="280" height="76" rx="10" fill="rgba(140, 130, 210, 0.16)" stroke="rgba(140, 130, 210, 0.55)" stroke-width="1.25"/><rect x="316" y="218" width="268" height="64" rx="7" fill="none" stroke="rgba(140, 130, 210, 0.55)" stroke-width="1" opacity="0.6"/><text x="450" y="244" text-anchor="middle" dominant-baseline="middle" font-family="'Inter', -apple-system, BlinkMacSystemFont, system-ui, sans-serif" font-size="15" font-weight="600" fill="#e8e4db">Create Job</text><text x="450" y="264" text-anchor="middle" dominant-baseline="middle" font-family="'JetBrains Mono', ui-monospace, Menlo, Consolas, monospace" font-size="11.5" fill="#9a9488">status = PENDING</text></g><path d="M590,250 L710,250 Q710,250 710,250 L710,490 Q710,490 710,490 L590,490" fill="none" stroke="#c8c2b5" stroke-width="1.4" stroke-linecap="round" stroke-linejoin="round" marker-end="url(#ah-flow-polling-dark)"/><path d="M450,288 L450,332" fill="none" stroke="#c8c2b5" stroke-width="1.4" stroke-linecap="round" stroke-linejoin="round" marker-end="url(#ah-flow-polling-dark)"/><g><rect x="310" y="332" width="280" height="76" rx="10" fill="rgba(215, 175, 110, 0.14)" stroke="rgba(215, 175, 110, 0.55)" stroke-width="1.25"/><rect x="316" y="338" width="268" height="64" rx="7" fill="none" stroke="rgba(215, 175, 110, 0.55)" stroke-width="1" opacity="0.6"/><text x="450" y="364" text-anchor="middle" dominant-baseline="middle" font-family="'Inter', -apple-system, BlinkMacSystemFont, system-ui, sans-serif" font-size="15" font-weight="600" fill="#e8e4db">Enqueue Task</text><text x="450" y="384" text-anchor="middle" dominant-baseline="middle" font-family="'JetBrains Mono', ui-monospace, Menlo, Consolas, monospace" font-size="11.5" fill="#9a9488">Arq · Redis</text></g><path d="M450,408 L450,452" fill="none" stroke="#c8c2b5" stroke-width="1.4" stroke-linecap="round" stroke-linejoin="round" marker-end="url(#ah-flow-polling-dark)"/><g><rect x="310" y="452" width="280" height="76" rx="10" fill="rgba(120, 190, 145, 0.14)" stroke="rgba(120, 190, 145, 0.55)" stroke-width="1.25"/><rect x="316" y="458" width="268" height="64" rx="7" fill="none" stroke="rgba(120, 190, 145, 0.55)" stroke-width="1" opacity="0.6"/><text x="450" y="491" text-anchor="middle" dominant-baseline="middle" font-family="'Inter', -apple-system, BlinkMacSystemFont, system-ui, sans-serif" font-size="15" font-weight="600" fill="#e8e4db">Return Job ID</text></g><path d="M450,528 L450,572" fill="none" stroke="#c8c2b5" stroke-width="1.4" stroke-linecap="round" stroke-linejoin="round" marker-end="url(#ah-flow-polling-dark)"/><g><rect x="481.4" y="541" width="93.19999999999999" height="18" rx="4" fill="#1a1a1f" stroke="#c8c2b5" stroke-width="0.75" opacity="0.95"/><text x="528" y="551" text-anchor="middle" dominant-baseline="middle" font-family="'JetBrains Mono', ui-monospace, Menlo, Consolas, monospace" font-size="10.5" font-weight="500" fill="#9a9488">client polls</text></g><g><rect x="310" y="572" width="280" height="76" rx="10" fill="rgba(120, 165, 210, 0.18)" stroke="rgba(120, 165, 210, 0.60)" stroke-width="1.25"/><rect x="316" y="578" width="268" height="64" rx="7" fill="none" stroke="rgba(120, 165, 210, 0.60)" stroke-width="1" opacity="0.6"/><text x="450" y="611" text-anchor="middle" dominant-baseline="middle" font-family="'Inter', -apple-system, BlinkMacSystemFont, system-ui, sans-serif" font-size="15" font-weight="600" fill="#e8e4db">GET /jobs/{id}</text></g><path d="M450,648 L450,690" fill="none" stroke="#c8c2b5" stroke-width="1.4" stroke-linecap="round" stroke-linejoin="round" marker-end="url(#ah-flow-polling-dark)"/><g><rect x="200" y="690" width="500" height="220" rx="10" fill="#22222a" stroke="#c8c2b5" stroke-width="1.25"/><rect x="206" y="696" width="488" height="208" rx="7" fill="none" stroke="#c8c2b5" stroke-width="1" opacity="0.4"/><text x="450" y="714" text-anchor="middle" font-family="'Inter', -apple-system, BlinkMacSystemFont, system-ui, sans-serif" font-size="14" font-weight="600" fill="#e8e4db">Job Status Response</text><g><rect x="228" y="746" width="444" height="148" rx="6" fill="#14141a" stroke="#c8c2b5" stroke-width="0.75" opacity="0.9"/><circle cx="242" cy="758" r="3.5" fill="#e06c6c" opacity="0.5"/><circle cx="254" cy="758" r="3.5" fill="#e0b96c" opacity="0.5"/><circle cx="266" cy="758" r="3.5" fill="#7fb86a" opacity="0.5"/><g font-family="'JetBrains Mono', ui-monospace, Menlo, Consolas, monospace" font-size="13"><text x="246" y="786" fill="#d8d2c3">{</text><g><text x="264" y="804" fill="#a8c4dd">"status"</text><text x="327.4" y="804" fill="#d8d2c3">:</text><text x="337.4" y="804" fill="#b9c9a9">"IN_PROGRESS",</text></g><g><text x="264" y="822" fill="#a8c4dd">"progress"</text><text x="343.2" y="822" fill="#d8d2c3">:</text><text x="353.2" y="822" fill="#c9b079">45,</text></g><g><text x="264" y="840" fill="#a8c4dd">"data"</text><text x="311.6" y="840" fill="#d8d2c3">:</text><text x="321.6" y="840" fill="#d8d2c3">{...}</text></g><text x="246" y="858" fill="#d8d2c3">}</text></g></g></g></svg>