<?xml version="1.0" encoding="UTF-8"?>
<svg viewBox="0 0 1200 900" width="1200" height="900" style="display: block; background: rgb(255, 255, 255); font-family: &quot;Inter&quot;, -apple-system, BlinkMacSystemFont, system-ui, sans-serif;" xmlns="http://www.w3.org/2000/svg" xmlns:xlink="http://www.w3.org/1999/xlink"><defs><pattern id="grid-flow-data-model-light" x="0" y="0" width="14" height="14" patternUnits="userSpaceOnUse"><circle cx="1" cy="1" r="0.7" fill="#d9d5cd"/></pattern><marker id="ah-flow-data-model-light" viewBox="0 0 10 10" refX="9" refY="5" markerWidth="6" markerHeight="6" orient="auto-start-reverse"><path d="M0,0 L10,5 L0,10 z" fill="#2a2722"/></marker></defs><rect x="0" y="0" width="1200" height="900" fill="url(#grid-flow-data-model-light)"/><g transform="translate(40,44)"><text x="0" y="0" font-family="'JetBrains Mono', ui-monospace, Menlo, Consolas, monospace" font-size="10.5" font-weight="500" fill="#6b655c" letter-spacing="1.5">FIGURE 7</text><text x="0" y="22" font-family="'Inter', -apple-system, BlinkMacSystemFont, system-ui, sans-serif" font-size="18" font-weight="600" fill="#1a1714" letter-spacing="-0.3">Data model</text></g><g><path d="M550,238 L550,360" fill="none" stroke="#2a2722" stroke-width="1.25" stroke-linecap="round" stroke-linejoin="round" marker-end="url(#ah-flow-data-model-light)"/><g transform="translate(550,299)"><rect x="-18.8" y="-9" width="37.6" height="18" rx="4" fill="#ffffff" stroke="#2a2722" stroke-width="0.75" opacity="0.95"/><text x="0" y="1" text-anchor="middle" dominant-baseline="middle" font-family="'JetBrains Mono', ui-monospace, Menlo, Consolas, monospace" font-size="11" font-weight="500" fill="#6b655c" letter-spacing="0.3">1:n</text></g></g><g><path d="M300,334 L385,334 Q385,334 385,334 L385,414 Q385,414 385,414 L430,414" fill="none" stroke="#2a2722" stroke-width="1.25" stroke-linecap="round" stroke-linejoin="round"/><g transform="translate(385,374)"><rect x="-18.8" y="-9" width="37.6" height="18" rx="4" fill="#ffffff" stroke="#2a2722" stroke-width="0.75" opacity="0.95"/><text x="0" y="1" text-anchor="middle" dominant-baseline="middle" font-family="'JetBrains Mono', ui-monospace, Menlo, Consolas, monospace" font-size="11" font-weight="500" fill="#6b655c" letter-spacing="0.3">n:m</text></g></g><g><path d="M870,262 L870,380" fill="none" stroke="#2a2722" stroke-width="1.25" stroke-linecap="round" stroke-linejoin="round" marker-end="url(#ah-flow-data-model-light)"/><g transform="translate(870,321)"><rect x="-18.8" y="-9" width="37.6" height="18" rx="4" fill="#ffffff" stroke="#2a2722" stroke-width="0.75" opacity="0.95"/><text x="0" y="1" text-anchor="middle" dominant-baseline="middle" font-family="'JetBrains Mono', ui-monospace, Menlo, Consolas, monospace" font-size="11" font-weight="500" fill="#6b655c" letter-spacing="0.3">1:n</text></g></g><g transform="translate(60,130)"><rect x="0" y="0" width="240" height="228" rx="10" fill="#ffffff" stroke="#2a2722" stroke-width="1.25"/><path d="M0,44 L240,44" stroke="rgba(42, 39, 34, 0.18)" stroke-width="1"/><rect x="0" y="0" width="240" height="44" rx="10" fill="#f4f1ea" stroke="none" clip-path="inset(0 0 50% 0)"/><rect x="0" y="22" width="240" height="22" fill="#f4f1ea"/><rect x="0" y="0" width="240" height="228" rx="10" fill="none" stroke="#2a2722" stroke-width="1.25"/><line x1="0" y1="44" x2="240" y2="44" stroke="#2a2722" stroke-width="1" opacity="0.7"/><text x="120" y="23" text-anchor="middle" dominant-baseline="middle" font-family="'Inter', -apple-system, BlinkMacSystemFont, system-ui, sans-serif" font-size="15" font-weight="600" fill="#1a1714" letter-spacing="-0.1">PV</text><text x="16" y="62" dominant-baseline="middle" font-family="'JetBrains Mono', ui-monospace, Menlo, Consolas, monospace" font-size="12" font-weight="400" fill="#1a1714">setpoint_address</text><text x="16" y="86" dominant-baseline="middle" font-family="'JetBrains Mono', ui-monospace, Menlo, Consolas, monospace" font-size="12" font-weight="400" fill="#1a1714">readback_address</text><text x="16" y="110" dominant-baseline="middle" font-family="'JetBrains Mono', ui-monospace, Menlo, Consolas, monospace" font-size="12" font-weight="400" fill="#1a1714">config_address</text><text x="16" y="134" dominant-baseline="middle" font-family="'JetBrains Mono', ui-monospace, Menlo, Consolas, monospace" font-size="12" font-weight="400" fill="#1a1714">device</text><text x="16" y="158" dominant-baseline="middle" font-family="'JetBrains Mono', ui-monospace, Menlo, Consolas, monospace" font-size="12" font-weight="400" fill="#1a1714">description</text><text x="16" y="182" dominant-baseline="middle" font-family="'JetBrains Mono', ui-monospace, Menlo, Consolas, monospace" font-size="12" font-weight="400" fill="#1a1714">abs_tolerance</text><text x="16" y="206" dominant-baseline="middle" font-family="'JetBrains Mono', ui-monospace, Menlo, Consolas, monospace" font-size="12" font-weight="400" fill="#1a1714">rel_tolerance</text></g><g transform="translate(430,130)"><rect x="0" y="0" width="240" height="108" rx="10" fill="#ffffff" stroke="#2a2722" stroke-width="1.25"/><path d="M0,44 L240,44" stroke="rgba(42, 39, 34, 0.18)" stroke-width="1"/><rect x="0" y="0" width="240" height="44" rx="10" fill="#f4f1ea" stroke="none" clip-path="inset(0 0 50% 0)"/><rect x="0" y="22" width="240" height="22" fill="#f4f1ea"/><rect x="0" y="0" width="240" height="108" rx="10" fill="none" stroke="#2a2722" stroke-width="1.25"/><line x1="0" y1="44" x2="240" y2="44" stroke="#2a2722" stroke-width="1" opacity="0.7"/><text x="120" y="23" text-anchor="middle" dominant-baseline="middle" font-family="'Inter', -apple-system, BlinkMacSystemFont, system-ui, sans-serif" font-size="15" font-weight="600" fill="#1a1714" letter-spacing="-0.1">TagGroup</text><text x="16" y="62" dominant-baseline="middle" font-family="'JetBrains Mono', ui-monospace, Menlo, Consolas, monospace" font-size="12" font-weight="400" fill="#1a1714">name</text><text x="16" y="86" dominant-baseline="middle" font-family="'JetBrains Mono', ui-monospace, Menlo, Consolas, monospace" font-size="12" font-weight="400" fill="#1a1714">description</text></g><g transform="translate(430,360)"><rect x="0" y="0" width="240" height="108" rx="10" fill="#ffffff" stroke="#2a2722" stroke-width="1.25"/><path d="M0,44 L240,44" stroke="rgba(42, 39, 34, 0.18)" stroke-width="1"/><rect x="0" y="0" width="240" height="44" rx="10" fill="#f4f1ea" stroke="none" clip-path="inset(0 0 50% 0)"/><rect x="0" y="22" width="240" height="22" fill="#f4f1ea"/><rect x="0" y="0" width="240" height="108" rx="10" fill="none" stroke="#2a2722" stroke-width="1.25"/><line x1="0" y1="44" x2="240" y2="44" stroke="#2a2722" stroke-width="1" opacity="0.7"/><text x="120" y="23" text-anchor="middle" dominant-baseline="middle" font-family="'Inter', -apple-system, BlinkMacSystemFont, system-ui, sans-serif" font-size="15" font-weight="600" fill="#1a1714" letter-spacing="-0.1">Tag</text><text x="16" y="62" dominant-baseline="middle" font-family="'JetBrains Mono', ui-monospace, Menlo, Consolas, monospace" font-size="12" font-weight="400" fill="#1a1714">name</text><text x="16" y="86" dominant-baseline="middle" font-family="'JetBrains Mono', ui-monospace, Menlo, Consolas, monospace" font-size="12" font-weight="400" fill="#1a1714">tag_group_id</text></g><g transform="translate(750,130)"><rect x="0" y="0" width="240" height="132" rx="10" fill="#ffffff" stroke="#2a2722" stroke-width="1.25"/><path d="M0,44 L240,44" stroke="rgba(42, 39, 34, 0.18)" stroke-width="1"/><rect x="0" y="0" width="240" height="44" rx="10" fill="#f4f1ea" stroke="none" clip-path="inset(0 0 50% 0)"/><rect x="0" y="22" width="240" height="22" fill="#f4f1ea"/><rect x="0" y="0" width="240" height="132" rx="10" fill="none" stroke="#2a2722" stroke-width="1.25"/><line x1="0" y1="44" x2="240" y2="44" stroke="#2a2722" stroke-width="1" opacity="0.7"/><text x="120" y="23" text-anchor="middle" dominant-baseline="middle" font-family="'Inter', -apple-system, BlinkMacSystemFont, system-ui, sans-serif" font-size="15" font-weight="600" fill="#1a1714" letter-spacing="-0.1">Snapshot</text><text x="16" y="62" dominant-baseline="middle" font-family="'JetBrains Mono', ui-monospace, Menlo, Consolas, monospace" font-size="12" font-weight="400" fill="#1a1714">title</text><text x="16" y="86" dominant-baseline="middle" font-family="'JetBrains Mono', ui-monospace, Menlo, Consolas, monospace" font-size="12" font-weight="400" fill="#1a1714">comment</text><text x="16" y="110" dominant-baseline="middle" font-family="'JetBrains Mono', ui-monospace, Menlo, Consolas, monospace" font-size="12" font-weight="400" fill="#1a1714">created_by</text></g><g transform="translate(750,380)"><rect x="0" y="0" width="240" height="180" rx="10" fill="#ffffff" stroke="#2a2722" stroke-width="1.25"/><path d="M0,44 L240,44" stroke="rgba(42, 39, 34, 0.18)" stroke-width="1"/><rect x="0" y="0" width="240" height="44" rx="10" fill="#f4f1ea" stroke="none" clip-path="inset(0 0 50% 0)"/><rect x="0" y="22" width="240" height="22" fill="#f4f1ea"/><rect x="0" y="0" width="240" height="180" rx="10" fill="none" stroke="#2a2722" stroke-width="1.25"/><line x1="0" y1="44" x2="240" y2="44" stroke="#2a2722" stroke-width="1" opacity="0.7"/><text x="120" y="23" text-anchor="middle" dominant-baseline="middle" font-family="'Inter', -apple-system, BlinkMacSystemFont, system-ui, sans-serif" font-size="15" font-weight="600" fill="#1a1714" letter-spacing="-0.1">SnapshotValue</text><text x="16" y="62" dominant-baseline="middle" font-family="'JetBrains Mono', ui-monospace, Menlo, Consolas, monospace" font-size="12" font-weight="400" fill="#1a1714">pv_name</text><text x="16" y="86" dominant-baseline="middle" font-family="'JetBrains Mono', ui-monospace, Menlo, Consolas, monospace" font-size="12" font-weight="400" fill="#1a1714">setpoint_value</text><text x="16" y="110" dominant-baseline="middle" font-family="'JetBrains Mono', ui-monospace, Menlo, Consolas, monospace" font-size="12" font-weight="400" fill="#1a1714">readback_value</text><text x="16" y="134" dominant-baseline="middle" font-family="'JetBrains Mono', ui-monospace, Menlo, Consolas, monospace" font-size="12" font-weight="400" fill="#1a1714">status</text><text x="16" y="158" dominant-baseline="middle" font-family="'JetBrains Mono', ui-monospace, Menlo, Consolas, monospace" font-size="12" font-weight="400" fill="#1a1714">severity</text></g><g transform="translate(60,560)"><rect x="0" y="0" width="240" height="204" rx="10" fill="#ffffff" stroke="#2a2722" stroke-width="1.25"/><path d="M0,44 L240,44" stroke="rgba(42, 39, 34, 0.18)" stroke-width="1"/><rect x="0" y="0" width="240" height="44" rx="10" fill="#f4f1ea" stroke="none" clip-path="inset(0 0 50% 0)"/><rect x="0" y="22" width="240" height="22" fill="#f4f1ea"/><rect x="0" y="0" width="240" height="204" rx="10" fill="none" stroke="#2a2722" stroke-width="1.25"/><line x1="0" y1="44" x2="240" y2="44" stroke="#2a2722" stroke-width="1" opacity="0.7"/><text x="120" y="23" text-anchor="middle" dominant-baseline="middle" font-family="'Inter', -apple-system, BlinkMacSystemFont, system-ui, sans-serif" font-size="15" font-weight="600" fill="#1a1714" letter-spacing="-0.1">Job</text><text x="16" y="62" dominant-baseline="middle" font-family="'JetBrains Mono', ui-monospace, Menlo, Consolas, monospace" font-size="12" font-weight="400" fill="#1a1714">type (enum)</text><text x="16" y="86" dominant-baseline="middle" font-family="'JetBrains Mono', ui-monospace, Menlo, Consolas, monospace" font-size="12" font-weight="400" fill="#1a1714">status (enum)</text><text x="16" y="110" dominant-baseline="middle" font-family="'JetBrains Mono', ui-monospace, Menlo, Consolas, monospace" font-size="12" font-weight="400" fill="#1a1714">progress (0–100)</text><text x="16" y="134" dominant-baseline="middle" font-family="'JetBrains Mono', ui-monospace, Menlo, Consolas, monospace" font-size="12" font-weight="400" fill="#1a1714">data (JSONB)</text><text x="16" y="158" dominant-baseline="middle" font-family="'JetBrains Mono', ui-monospace, Menlo, Consolas, monospace" font-size="12" font-weight="400" fill="#1a1714">result_id</text><text x="16" y="182" dominant-baseline="middle" font-family="'JetBrains Mono', ui-monospace, Menlo, Consolas, monospace" font-size="12" font-weight="400" fill="#1a1714">retry_count</text></g><g transform="translate(40,846)"><text x="0" y="0" font-family="'JetBrains Mono', ui-monospace, Menlo, Consolas, monospace" font-size="10" font-weight="500" fill="#6b655c" letter-spacing="1.2">RELATIONSHIPS</text><g transform="translate(0,18)"><line x1="0" y1="8" x2="30" y2="8" stroke="#2a2722" stroke-width="1.25" marker-end="url(#ah-flow-data-model-light)" stroke-linecap="round"/><text x="40" y="8" dominant-baseline="middle" font-family="'JetBrains Mono', ui-monospace, Menlo, Consolas, monospace" font-size="11" fill="#1a1714">one-to-many</text><line x1="160" y1="8" x2="190" y2="8" stroke="#2a2722" stroke-width="1.25" stroke-linecap="round"/><text x="200" y="8" dominant-baseline="middle" font-family="'JetBrains Mono', ui-monospace, Menlo, Consolas, monospace" font-size="11" fill="#1a1714">many-to-many (junction implied)</text></g></g></svg>